HIERARCHY
ROOT Hips
{
	OFFSET -14.64140 90.27770 -84.91600
	CHANNELS 6 Xposition Yposition Zposition Zrotation Xrotation Yrotation
	JOINT Spine
	{
		OFFSET 0.00000 13.20850 -1.60436
		CHANNELS 3 Zrotation Xrotation Yrotation
		JOINT Spine1
		{
			OFFSET 0.00000 8.61716 0.00000
			CHANNELS 3 Zrotation Xrotation Yrotation
			JOINT Spine2
			{
				OFFSET 0.00000 8.61717 0.00000
				CHANNELS 3 Zrotation Xrotation Yrotation
				JOINT Spine3
				{
					OFFSET 0.00000 8.61717 0.00000
					CHANNELS 3 Zrotation Xrotation Yrotation
					JOINT Neck
					{
						OFFSET 0.00000 11.07920 1.10792
						CHANNELS 3 Zrotation Xrotation Yrotation
						JOINT Neck1
						{
							OFFSET 0.00000 7.08032 0.00000
							CHANNELS 3 Zrotation Xrotation Yrotation
							JOINT Head
							{
								OFFSET 0.00000 7.08031 0.00000
								CHANNELS 3 Zrotation Xrotation Yrotation
								End site
								{
									OFFSET 0.00000 0.00000 0.00000
								}
							}
						}
					}
					JOINT RightShoulder
					{
						OFFSET -0.01000 7.91373 5.19711
						CHANNELS 3 Zrotation Xrotation Yrotation
						JOINT RightArm
						{
							OFFSET -18.41580 0.00000 0.00000
							CHANNELS 3 Zrotation Xrotation Yrotation
							JOINT RightForeArm
							{
								OFFSET -29.11090 0.00000 0.00000
								CHANNELS 3 Zrotation Xrotation Yrotation
								JOINT RightHand
								{
									OFFSET -24.65040 0.00000 0.00000
									CHANNELS 3 Zrotation Xrotation Yrotation
									JOINT RightHandThumb1
									{
										OFFSET -5.35114 -0.85590 3.97906
										CHANNELS 3 Zrotation Xrotation Yrotation
										JOINT RightHandThumb2
										{
											OFFSET -4.52789 0.00000 0.00000
											CHANNELS 3 Zrotation Xrotation Yrotation
											JOINT RightHandThumb3
											{
												OFFSET -2.46976 0.00000 0.00000
												CHANNELS 3 Zrotation Xrotation Yrotation
												End site
												{
													OFFSET 0.00000 0.00000 0.00000
												}
											}
										}
									}
									JOINT RightHandIndex1
									{
										OFFSET -14.26970 0.00000 2.88139
										CHANNELS 3 Zrotation Xrotation Yrotation
										JOINT RightHandIndex2
										{
											OFFSET -5.48836 0.00000 0.00000
											CHANNELS 3 Zrotation Xrotation Yrotation
											JOINT RightHandIndex3
											{
												OFFSET -3.01859 0.00000 0.00000
												CHANNELS 3 Zrotation Xrotation Yrotation
												End site
												{
													OFFSET 0.00000 0.00000 0.00000
												}
											}
										}
									}
									JOINT RightHandMiddle1
									{
										OFFSET -14.26970 0.00000 -0.09147
										CHANNELS 3 Zrotation Xrotation Yrotation
										JOINT RightHandMiddle2
										{
											OFFSET -6.17441 0.00000 0.00000
											CHANNELS 3 Zrotation Xrotation Yrotation
											JOINT RightHandMiddle3
											{
												OFFSET -3.56743 0.00000 0.00000
												CHANNELS 3 Zrotation Xrotation Yrotation
												End site
												{
													OFFSET 0.00000 0.00000 0.00000
												}
											}
										}
									}
									JOINT RightHandRing1
									{
										OFFSET -12.69180 0.00000 -3.06433
										CHANNELS 3 Zrotation Xrotation Yrotation
										JOINT RightHandRing2
										{
											OFFSET -5.62556 0.00000 0.00000
											CHANNELS 3 Zrotation Xrotation Yrotation
											JOINT RightHandRing3
											{
												OFFSET -3.56744 0.00000 0.00000
												CHANNELS 3 Zrotation Xrotation Yrotation
												End site
												{
													OFFSET 0.00000 0.00000 0.00000
												}
											}
										}
									}
									JOINT RightHandPinky1
									{
										OFFSET -11.11390 0.00000 -6.03719
										CHANNELS 3 Zrotation Xrotation Yrotation
										JOINT RightHandPinky2
										{
											OFFSET -4.52789 0.00000 0.00000
											CHANNELS 3 Zrotation Xrotation Yrotation
											JOINT RightHandPinky3
											{
												OFFSET -2.46976 0.00000 0.00000
												CHANNELS 3 Zrotation Xrotation Yrotation
												End site
												{
													OFFSET 0.00000 0.00000 0.00000
												}
											}
										}
									}
								}
							}
						}
					}
					JOINT LeftShoulder
					{
						OFFSET 0.01000 7.91373 5.19711
						CHANNELS 3 Zrotation Xrotation Yrotation
						JOINT LeftArm
						{
							OFFSET 18.41580 0.00000 0.00000
							CHANNELS 3 Zrotation Xrotation Yrotation
							JOINT LeftForeArm
							{
								OFFSET 29.11090 0.00000 0.00000
								CHANNELS 3 Zrotation Xrotation Yrotation
								JOINT LeftHand
								{
									OFFSET 24.65040 0.00000 0.00000
									CHANNELS 3 Zrotation Xrotation Yrotation
									JOINT LeftHandThumb1
									{
										OFFSET 5.35114 -0.85590 3.97906
										CHANNELS 3 Zrotation Xrotation Yrotation
										JOINT LeftHandThumb2
										{
											OFFSET 4.52789 0.00000 0.00000
											CHANNELS 3 Zrotation Xrotation Yrotation
											JOINT LeftHandThumb3
											{
												OFFSET 2.46977 0.00000 0.00000
												CHANNELS 3 Zrotation Xrotation Yrotation
												End site
												{
													OFFSET 0.00000 0.00000 0.00000
												}
											}
										}
									}
									JOINT LeftHandIndex1
									{
										OFFSET 14.26970 0.00000 2.88139
										CHANNELS 3 Zrotation Xrotation Yrotation
										JOINT LeftHandIndex2
										{
											OFFSET 5.48836 0.00000 0.00000
											CHANNELS 3 Zrotation Xrotation Yrotation
											JOINT LeftHandIndex3
											{
												OFFSET 3.01859 0.00000 0.00000
												CHANNELS 3 Zrotation Xrotation Yrotation
												End site
												{
													OFFSET 0.00000 0.00000 0.00000
												}
											}
										}
									}
									JOINT LeftHandMiddle1
									{
										OFFSET 14.26970 0.00000 -0.09147
										CHANNELS 3 Zrotation Xrotation Yrotation
										JOINT LeftHandMiddle2
										{
											OFFSET 6.17440 0.00000 0.00000
											CHANNELS 3 Zrotation Xrotation Yrotation
											JOINT LeftHandMiddle3
											{
												OFFSET 3.56744 0.00000 0.00000
												CHANNELS 3 Zrotation Xrotation Yrotation
												End site
												{
													OFFSET 0.00000 0.00000 0.00000
												}
											}
										}
									}
									JOINT LeftHandRing1
									{
										OFFSET 12.69180 0.00000 -3.06433
										CHANNELS 3 Zrotation Xrotation Yrotation
										JOINT LeftHandRing2
										{
											OFFSET 5.62556 0.00000 0.00000
											CHANNELS 3 Zrotation Xrotation Yrotation
											JOINT LeftHandRing3
											{
												OFFSET 3.56744 0.00000 0.00000
												CHANNELS 3 Zrotation Xrotation Yrotation
												End site
												{
													OFFSET 0.00000 0.00000 0.00000
												}
											}
										}
									}
									JOINT LeftHandPinky1
									{
										OFFSET 11.11390 0.00000 -6.03719
										CHANNELS 3 Zrotation Xrotation Yrotation
										JOINT LeftHandPinky2
										{
											OFFSET 4.52789 0.00000 0.00000
											CHANNELS 3 Zrotation Xrotation Yrotation
											JOINT LeftHandPinky3
											{
												OFFSET 2.46976 0.00000 0.00000
												CHANNELS 3 Zrotation Xrotation Yrotation
												End site
												{
													OFFSET 0.00000 0.00000 0.00000
												}
											}
										}
									}
								}
							}
						}
					}
					JOINT pCube4
					{
						OFFSET 0.00000 10.91090 1.10792
						CHANNELS 3 Zrotation Xrotation Yrotation
						End site
						{
							OFFSET 0.00000 0.00000 0.00000
						}
					}
				}
			}
		}
	}
	JOINT RightUpLeg
	{
		OFFSET -9.98441 0.00000 0.00000
		CHANNELS 3 Zrotation Xrotation Yrotation
		JOINT RightLeg
		{
			OFFSET 0.00000 -42.11790 0.00000
			CHANNELS 3 Zrotation Xrotation Yrotation
			JOINT RightFoot
			{
				OFFSET 0.00000 -45.00020 -0.00001
				CHANNELS 3 Zrotation Xrotation Yrotation
				JOINT RightForeFoot
				{
					OFFSET 0.00000 -3.74820 0.00000
					CHANNELS 3 Zrotation Xrotation Yrotation
					JOINT RightToeBase
					{
						OFFSET 0.00000 0.06325 14.43120
						CHANNELS 3 Zrotation Xrotation Yrotation
						End site
						{
							OFFSET 0.00000 0.00000 0.00000
						}
					}
				}
			}
		}
	}
	JOINT LeftUpLeg
	{
		OFFSET 9.98441 0.00000 0.00000
		CHANNELS 3 Zrotation Xrotation Yrotation
		JOINT LeftLeg
		{
			OFFSET 0.00000 -42.11800 0.00000
			CHANNELS 3 Zrotation Xrotation Yrotation
			JOINT LeftFoot
			{
				OFFSET 0.00000 -45.00070 0.00000
				CHANNELS 3 Zrotation Xrotation Yrotation
				JOINT LeftForeFoot
				{
					OFFSET 0.00000 -3.74824 0.00000
					CHANNELS 3 Zrotation Xrotation Yrotation
					JOINT LeftToeBase
					{
						OFFSET 0.00000 0.06325 14.43110
						CHANNELS 3 Zrotation Xrotation Yrotation
						End site
						{
							OFFSET 0.00000 0.00000 0.00000
						}
					}
				}
			}
		}
	}
}
MOTION
Frames: 4
Frame Time: 0.050000
-0.030089046822259165 0.015041235338852385 0.04803575685945631 0.01172054410513488 -0.03850058654608015 0.016170401276399352 -3.2021627997735154 0.4200009754671958 -0.703429424420453 -1.141438567966185 3.8321546707385212 0.3955568575503059 -1.349528864537892 -2.043668692573417 -1.026158428980356 -0.46786414861198333 0.503075173913842 -0.7809824083084049 -0.4958582883369522 13.314914621527246 2.336952069817826 0.4095027503468585 0.19004174163311527 4.343796669861541 -0.06788983059260481 -14.683140987734793 0.33309929021697376 -4.945161929722453 1.7656901492601558 -15.324704271735156 73.29556516879164 19.853916733683796 -0.9782103897566978 2.75487475263248 2.3889512318464323 42.053199799937275 23.25365065494484 -0.1362087577221428 -4.16103190718417 4.523210316315605 -0.08300618956575093 -1.6038539692417584 -0.017861133426694285 0.04961575610151713 -56.23047448619477 -0.008782892794066239 0.026953404806247496 -56.229677885004804 -38.738072960703946 0.031958076797209606 0.021244778924293432 -0.04896598941593803 0.03188074414585601 0.024233241836823717 -0.044643106086039525 0.030411739877088586 -0.023013710146431225 -36.71092129433322 0.005235285928867145 0.007590626170869817 0.027792548153602964 -0.030398104597113222 -0.04801524826012064 0.03262303856256227 -0.03799152357210675 -0.0435624868707025 -19.759836221008907 -0.028852612536931027 -0.03592374182214337 0.04843801760126244 0.04245103945640916 0.01721011761392329 0.039075912166145796 -0.04092676992599837 -0.013668122598157055 24.01039588027269 0.013354860765666192 0.018581387469694004 28.836491862420186 0.009444916694280008 0.03194378162691257 28.820440075512806 -0.0075934262876909625 -0.030710700440367528 6.2073062060737385 1.41767515251664 13.824067955164825 -72.58670186056902 25.419512674112482 -4.088033417265449 -0.7378684755122945 -11.191068988341959 -42.41528929745985 -9.46173624705765 -0.23862542592529137 3.127356078728261 -0.47869757407136954 0.09828192674708407 -8.123092767285966 0.026229603426936827 -0.018939790680546287 44.60513864496736 -0.0004946112050433332 -0.028023167972954257 44.5873872091054 12.461578355552826 -0.009344092717995635 -0.02543086383887119 0.0014026958389598727 -0.03499839354922951 -0.013698340848600103 0.0013360988241909086 0.0009635873025362379 0.049787077614478495 11.126036763957003 0.003253453497719992 -0.03997985193554942 -0.004411336628834298 -0.006116672942941183 0.04677884912166882 0.02998302759447906 0.0032445317129359877 0.028534840514234397 4.754511208161154 -0.03211548623551576 -0.0283182289360436 0.015594086842017267 0.0021720233034914225 -0.04625729822013715 -0.044304309553665974 -0.031510007711145295 -0.008947845764774469 -5.616479238722474 0.040193935656793564 -0.015382619489819525 -6.755593696091605 -0.014897499333869172 0.002025606877896111 -6.675461633840808 -0.0035566699476044608 -0.04145335635934938 0.009204725661381762 0.010930527473428191 -0.004929459749776184 8.069082491617042 3.5044232303540683 -19.197975750454166 -0.006943832335580402 10.39268679796887 -0.0351914034807885 -5.577478364504734 -15.694708578104521 3.1787960063530845 0.008248505606204243 0.028412870628296668 0.014554013797398794 0.006052158261795627 4.7063669870825136 -0.039081953312569154 12.49462078988806 -8.267669199031088 6.860561001170049 -0.027800757850884796 46.332557692432744 0.04992810769114709 -4.311183430141342 -14.705617319592173 -3.8583827209620236 0.012662655342433604 -0.04603107047224694 -0.0109392553978334 0.012262749143871883 -10.736687378735192 -0.016928600360616716 
-0.014812287437627962 -0.0013395045176884783 -0.0004100597431194941 -0.03984571256133079 0.008636105302148664 -0.002978783577754881 -3.1560516387067055 0.5108291360405584 -0.7786945097795559 -1.1875083485210818 3.791802472316351 0.39667486016775994 -1.273859770537951 -2.050103485249684 -1.0685051829505052 -0.40576732721801834 0.5529275043409634 -0.8306672199963443 -0.6523734942018403 13.49398432434311 2.442853549237315 0.4127088331491903 0.1781890149197265 4.674837728999566 -0.15554754371674218 -14.786050620568538 0.3810633130634009 -5.086530235840386 1.8418941558413027 -15.169444844358893 72.60755932676588 20.040847464404504 -0.46585639356808495 2.534397271409437 2.011633095149216 42.82115966002227 22.887399384570664 -0.19962214016916613 -4.192748131175928 4.570653680011183 -0.15670972765837834 -1.5822968946017668 -0.04111460922928027 0.014644795031620594 -56.246735030634206 0.004127709943174893 -0.014420627542072732 -56.24919762479458 -38.74332624059359 0.039219985157071535 -0.031364482613802404 0.0014674602652449452 -0.03086220631441679 -0.03843556096070374 -0.01681253589551898 -0.036856889687415614 -0.008375859476388716 -36.6609774888318 0.005721402101976393 0.008002503650628554 -0.0018964354318449384 0.028144458549142357 0.0346038734178328 0.007353687473678266 -0.02454549252550269 0.04703336887076746 -19.791143375574585 -0.008707039643470063 -0.001299943595370936 0.0076992388402852985 0.04451092748526928 0.03668650147849229 0.04918567399691499 0.02431826658737551 0.04340660204450102 24.07379467334507 -0.028788791367334494 -0.010937998999489723 28.895829410164957 0.004857503618442444 -0.04512959445918431 28.82914864045789 0.003021568858726971 -0.014651266261172906 6.6285410495271675 1.48710006408665 13.820214361487098 -72.1555878064432 24.24097709728817 -5.665445026111252 -0.48368477715304853 -11.705160106255894 -43.31899648843587 -8.363502406825852 0.0656997099409018 2.8532176737876314 -0.43722409549727465 0.026270019148382256 -8.102445156386088 0.00031648742535364657 -0.027752880830306432 44.5681164060179 -0.03683857576761418 -0.011348194243570583 44.594726857816646 12.414239424464705 0.00996097909117059 0.013510535456108549 -0.00571047511997884 0.03198347521785601 0.03917600700092982 -0.039606069868059895 -0.007875305481143024 0.042351642775056694 11.067030525839039 0.0023710494238239907 0.02640463631190282 0.020285616689464 0.016909532264801876 0.049560839271891234 0.0013364176972207463 -0.004793376699187457 0.005346479575734633 4.768411293674718 0.02894844139254097 0.027163028566491283 0.019450482401139585 0.021258634136029603 -0.03833531928768523 0.02536100753176512 0.024756207199409592 -0.02080650076521884 -5.581401151109697 -0.04495454331326687 0.0018317796192456328 -6.751012954200332 -0.029925029662448213 -0.016289754012573678 -6.7706357978645055 0.0079470651549476 0.03481928689131172 -0.022529210669364863 -0.022764920463192593 0.02469674381843516 8.00894926529013 3.4839951441779853 -19.221488427488644 0.040663074834389495 10.42192059332981 0.017232423427841714 -5.5968134290300835 -15.64718810354366 3.2358350134033493 0.009961249762911373 -0.025945541856688042 -0.00486532848115322 0.019794352020416635 4.721152066584544 -0.03539487005919755 12.454757503375177 -8.235993031442074 6.837443847893289 0.03918547557803858 46.382540203337385 0.005375070958504757 -4.316608982987491 -14.75608822970016 -3.8069000192715357 0.03269253730117927 0.02440884899255753 -0.012520565140537414 -0.020396886995763183 -10.758707162945976 0.0181420584762402 
-0.016034338163679492 0.002138425813534199 0.04167970946600677 -0.007699243935218954 0.0024053030755614466 0.0017403208727473501 -3.1370202818758357 0.6062880401997355 -0.7100627090891876 -1.1166028687642342 3.810717717339973 0.36218601417604956 -1.2970386814749706 -2.1154065959207373 -1.2726873458487193 -0.49514228972472246 0.5835547564014331 -0.8704086121328225 -0.7968184260722687 13.704740114885842 2.940944660792764 0.31551488330488864 0.14425583239748993 5.8578287215339655 -0.3902105094772489 -14.835421293736621 0.5167822068283969 -5.3106377989786875 1.8756658415142253 -15.078479896368348 71.6969201931927 20.04613845567285 -0.3926377601265881 2.2263325082973093 1.2718351316278496 43.27545545543865 22.59423139413319 -0.16418506237281316 -4.2425742576097525 4.560905400023984 -0.15385760316302088 -1.6401117642911833 0.04011632895266238 0.03446287973935127 -56.2223504691696 -0.004417238121894166 -0.04725089571191948 -56.20174339626726 -38.72914701199717 0.0066232977015278915 0.04582470480233256 0.014328422436148023 -0.02444806843229207 -0.03835283949753673 0.0005385534392923536 0.027993480503327967 0.031093126471490345 -36.70694335094068 0.03011509599986152 -0.025480914878287343 0.020377437676035906 -0.03243671829348982 -0.019467441541430125 0.015355386784056476 0.025489906176493524 -0.043209023700871936 -19.72349352976969 -0.019822313575172036 -0.006109792270352188 0.03397994592614066 0.04250775623255438 -0.032618056085422543 -0.00577638163324526 0.013711029237938462 0.022142363505482456 24.056552961637166 0.013168016736608244 0.0046469048112555335 28.861495326332825 0.011403049269656679 -0.013632881468782618 28.850111362159055 -0.030460077489754513 0.01889988560783071 7.3262058908613055 1.539032536421371 13.738925078151267 -71.60716767635346 22.861187563268473 -7.596908141552198 0.2772494698660782 -12.58440965025547 -44.322268353983645 -7.337266636263361 0.47478225568517574 2.6894147227797105 -0.46620128189005694 0.0888093076758977 -8.124792630028656 0.024822207776995262 0.014781512012795865 44.58323490602514 -0.000744830287359581 -0.0022024617153076982 44.598791224133265 12.417418211883287 0.01562211166301611 -0.009834524183620758 0.011820995513520454 0.019589831927751367 0.008776329107384715 -0.00757727694641904 -0.00782975737177687 -0.03412002468397998 11.097116917379141 0.00653624059536004 -0.0073722827154862015 0.027203370478765698 0.006279882421927612 0.04695566300908595 -0.02908118510938113 -0.015538564563409744 -0.02420646582997171 4.779227081473809 0.030191760835080704 0.01812274252070999 0.03881171809638217 -0.0060886382017025465 -0.049995170760892715 0.021148804494963667 -0.003770430896309575 -0.022108441134950068 -5.597290016060223 -0.03412820624097819 0.03687629845486694 -6.701279409307055 -0.04062913192759919 -0.03314995412089746 -6.703654958251302 0.016029921057342033 0.02251063554861538 0.030952787987907005 -0.03584237376552378 -0.01781469209553326 8.029652886864179 3.4523363381904124 -19.219313002316817 -0.03763867811551984 10.409279756465756 0.053140508647690696 -5.628845760317754 -15.683426566732352 3.1607021168587934 -0.008821135922725563 0.005875939454294502 0.011979163501296375 -0.046904234022502524 4.659638659011751 -0.013309077566089692 12.499382586663625 -8.24143157795217 6.929113242366612 -0.005784623828013176 46.3476216536244 -0.04341975378249556 -4.362410927074261 -14.729260875551407 -3.7993630101090643 0.008286465965997214 0.03458289929906663 0.04380376661810795 0.008927028023147368 -10.738987065041695 0.033767638872495946 
-0.014699278336887443 0.01318908699890819 0.005700889976602643 -0.014302652773333794 -0.031076269384879413 0.008102177318322277 -3.1219822415029723 0.5491457932172663 -0.6687482472805787 -1.1897564610194051 3.8585233005106736 0.40461700197402867 -1.3042889741615327 -2.1900668022871375 -1.4688018901402744 -0.5064194095999034 0.6153817827951653 -0.8374342575994248 -0.9905835113255259 13.938977133735243 3.427796269051798 0.3433104752062527 0.32022751514273834 7.053516254330898 -0.5968427790882453 -14.605119204756846 0.5487442652989761 -5.591956488284438 1.8993815355288142 -15.017506732763747 70.62173438871264 20.134268678723007 0.029809224657585474 2.32179382970391 0.7768472757293035 44.3953112726989 22.490160752892017 -0.22111690181400973 -4.340577146652833 4.546691826795958 -0.11555368071106858 -1.626584841014526 -0.0354808279748937 0.031719676325275704 -56.216713264188 -0.0039263737707222425 0.03413026306158303 -56.23345635671767 -38.74324667043894 0.001362606678661102 -0.03901565767128704 0.010637529393389458 -0.015549016508920042 -0.04148205332762101 0.0019905974775756893 -0.0037163647059086933 0.04168834652230678 -36.70824427383037 0.01802014301888322 -0.02809656988703991 0.03729681586743764 0.035637477363925626 0.030908502359443306 0.003674086108645644 -0.0430719228606583 -0.004841481514692553 -19.76657942159805 0.0020371673945023877 -0.0260951546911934 -0.007962682012956497 -0.008392898702815753 -0.0037850584790526326 0.033937278946903605 -0.030180764052195434 -0.01884078791970231 24.078408250134537 0.025055125165529123 -0.004987670310708526 28.831474032385273 0.0036225723317824853 -0.008491291336567888 28.864397316851374 0.005825337475440516 0.038598979639880716 8.204288400771636 1.7324239214493717 13.688325939151438 -70.88863272021582 20.939848560077078 -10.234543673878818 0.6265878053233604 -13.21506089885616 -46.17791335618217 -6.099484960768651 0.8173053297290743 2.336309241621251 -0.5080934756674624 0.042318133538740824 -8.094709684937738 0.008552084127097438 0.002556803126926861 44.61065858371784 0.0057155083330403785 0.0029361347352369928 44.59618254696239 12.469692595066316 -0.013792776798392161 -0.004818481545403773 0.0017904405187063501 -0.0020274417824633208 -0.020225624614165896 -0.014784822861002975 -0.02694297698597443 -0.0002999517286909067 11.113842684294244 0.009585939106035586 -0.02279467820387858 -0.0019998935417027807 0.011019940043309273 -0.02750748966177555 -0.014818430737310909 0.02251574882527167 0.0032977926358269917 4.791121965906758 0.0030623244804485476 0.028157981160215294 -0.04181845459694985 0.033406719935694155 -0.015036819192259897 -0.033164537506868375 -0.018221760101370495 -0.03990409284631925 -5.565432101194404 -0.0034193773418869605 -0.03674530608259258 -6.731152212131467 -0.014160838695510287 0.0005289646514023587 -6.751156997892862 -0.01342319981678785 0.008095431242079515 -0.009564789195176131 0.03846149345432083 0.03834290576331362 7.994733472852418 3.5258470094133094 -19.202721290697905 0.04827653869487089 10.371893447628935 0.02133278793790062 -5.62418449160183 -15.638274800368059 3.1761756759717628 0.028091945245996838 0.0019250140964875114 0.014065544807234312 0.029964657708703598 4.673733008539031 -0.011827580556432895 12.5079615732765 -8.28024484409123 6.867597538990943 0.006063974931535313 46.4259879256215 0.035437311309402524 -4.314322359866313 -14.700589171302399 -3.8728063218220226 0.016926379935095912 -0.04462438634141579 0.03438583207166542 -0.010119209319152812 -10.743941023289487 -0.028318322970876317 
